<svg aria-hidden="true" style="position: absolute; width: 0; height: 0; overflow: hidden;" version="1.1" xmlns="http://www.w3.org/2000/svg" xmlns:xlink="http://www.w3.org/1999/xlink">
<defs>
<symbol id="icon-message-circle" viewBox="0 0 32 32">
<path stroke-linejoin="round" stroke-linecap="round" stroke-miterlimit="4" stroke-width="2.6667" d="M28 15.333c0 0.009 0 0.019 0 0.029 0 1.837-0.444 3.571-1.229 5.1l0.029-0.063c-1.901 3.744-5.723 6.265-10.133 6.267h-0c-0.009 0-0.019 0-0.029 0-1.837 0-3.571-0.444-5.1-1.229l0.063 0.029-7.6 2.533 2.533-7.6c-0.756-1.466-1.2-3.2-1.2-5.038 0-0.010 0-0.020 0-0.031v0.002c0.002-4.411 2.523-8.232 6.202-10.104l0.064-0.030c1.466-0.756 3.2-1.2 5.038-1.2 0.010 0 0.020 0 0.031 0h0.665c5.755 0.327 10.339 4.912 10.665 10.637l0.001 0.030v0.667z"></path>
</symbol>
<symbol id="icon-arrow-left" viewBox="0 0 32 32">
<path stroke-linejoin="round" stroke-linecap="round" stroke-miterlimit="4" stroke-width="2.6667" d="M25.333 16h-18.667"></path>
<path stroke-linejoin="round" stroke-linecap="round" stroke-miterlimit="4" stroke-width="2.6667" d="M16 25.333l-9.333-9.333 9.333-9.333"></path>
</symbol>
<symbol id="icon-chevron-left" viewBox="0 0 32 32">
<path stroke-linejoin="round" stroke-linecap="round" stroke-miterlimit="4" stroke-width="2.6667" d="M20 24l-8-8 8-8"></path>
</symbol>
<symbol id="icon-chevron-right" viewBox="0 0 32 32">
<path stroke-linejoin="round" stroke-linecap="round" stroke-miterlimit="4" stroke-width="2.6667" d="M12 24l8-8-8-8"></path>
</symbol>
<symbol id="icon-clock" viewBox="0 0 32 32">
<path stroke-linejoin="round" stroke-linecap="round" stroke-miterlimit="4" stroke-width="2.6667" d="M29.333 16c0 7.364-5.97 13.333-13.333 13.333s-13.333-5.97-13.333-13.333c0-7.364 5.97-13.333 13.333-13.333s13.333 5.97 13.333 13.333z"></path>
<path stroke-linejoin="round" stroke-linecap="round" stroke-miterlimit="4" stroke-width="2.6667" d="M16 8v8l5.333 2.667"></path>
</symbol>
<symbol id="icon-download" viewBox="0 0 32 32">
<path stroke-linejoin="round" stroke-linecap="round" stroke-miterlimit="4" stroke-width="2.6667" d="M28 20v5.333c0 1.473-1.194 2.667-2.667 2.667v0h-18.667c-1.473 0-2.667-1.194-2.667-2.667v0-5.333"></path>
<path stroke-linejoin="round" stroke-linecap="round" stroke-miterlimit="4" stroke-width="2.6667" d="M9.333 13.333l6.667 6.667 6.667-6.667"></path>
<path stroke-linejoin="round" stroke-linecap="round" stroke-miterlimit="4" stroke-width="2.6667" d="M16 20v-16"></path>
</symbol>
<symbol id="icon-external-link" viewBox="0 0 32 32">
<path stroke-linejoin="round" stroke-linecap="round" stroke-miterlimit="4" stroke-width="2.6667" d="M24 17.333v8c0 1.473-1.194 2.667-2.667 2.667v0h-14.667c-1.473 0-2.667-1.194-2.667-2.667v0-14.667c0-1.473 1.194-2.667 2.667-2.667v0h8"></path>
<path stroke-linejoin="round" stroke-linecap="round" stroke-miterlimit="4" stroke-width="2.6667" d="M20 4h8v8"></path>
<path stroke-linejoin="round" stroke-linecap="round" stroke-miterlimit="4" stroke-width="2.6667" d="M13.333 18.667l14.667-14.667"></path>
</symbol>
<symbol id="icon-heart" viewBox="0 0 32 32">
<path stroke-linejoin="round" stroke-linecap="round" stroke-miterlimit="4" stroke-width="2.6667" d="M27.787 6.147c-1.327-1.328-3.161-2.149-5.187-2.149s-3.859 0.821-5.187 2.149l-1.413 1.413-1.413-1.413c-1.327-1.327-3.161-2.148-5.187-2.148-4.051 0-7.335 3.284-7.335 7.335 0 2.026 0.821 3.859 2.148 5.187l11.787 11.787 11.787-11.787c1.328-1.327 2.149-3.161 2.149-5.187s-0.821-3.859-2.149-5.187l-0-0z"></path>
</symbol>
<symbol id="icon-maximize" viewBox="0 0 32 32">
<path stroke-linejoin="round" stroke-linecap="round" stroke-miterlimit="4" stroke-width="2.6667" d="M10.667 4h-4c-1.473 0-2.667 1.194-2.667 2.667v0 4M28 10.667v-4c0-1.473-1.194-2.667-2.667-2.667v0h-4M21.333 28h4c1.473 0 2.667-1.194 2.667-2.667v0-4M4 21.333v4c0 1.473 1.194 2.667 2.667 2.667v0h4"></path>
</symbol>
<symbol id="icon-menu" viewBox="0 0 32 32">
<path stroke-linejoin="round" stroke-linecap="round" stroke-miterlimit="4" stroke-width="2.6667" d="M4 16h24"></path>
<path stroke-linejoin="round" stroke-linecap="round" stroke-miterlimit="4" stroke-width="2.6667" d="M4 8h24"></path>
<path stroke-linejoin="round" stroke-linecap="round" stroke-miterlimit="4" stroke-width="2.6667" d="M4 24h24"></path>
</symbol>
<symbol id="icon-play" viewBox="0 0 32 32">
<path stroke-linejoin="round" stroke-linecap="round" stroke-miterlimit="4" stroke-width="2.6667" d="M6.667 4l18.667 12-18.667 12v-24z"></path>
</symbol>
<symbol id="telegram" viewBox="0 0 32 32">
  <path d="M14.809 2.723c-2.115.221-3.935.815-5.636 1.84-3.296 1.986-5.535 5.173-6.259 8.908C1.707 19.7 5.079 25.93 10.961 28.338c1.684.69 3.131.968 5.039.968 1.54 0 2.486-.133 3.824-.538 2.17-.655 3.977-1.739 5.591-3.353 2.121-2.121 3.379-4.667 3.822-7.735.04-.281.069-.978.069-1.68s-.029-1.399-.069-1.68c-.31-2.146-1.002-3.984-2.147-5.697-2.122-3.176-5.363-5.234-9.14-5.802-.807-.122-2.432-.173-3.141-.098zm7.057 8.077c.361.186.388.418.213 1.843-.27 2.197-1.305 8.439-1.516 9.144-.12.402-.341.706-.606.834-.208.101-.262.106-.534.052a2.508 2.508 0 0 1-.558-.19l.015.006c-.285-.148-4.398-2.926-4.578-3.093-.314-.291-.359-.653-.121-.975.182-.245.727-.777 2.326-2.273 1.489-1.392 2.16-2.079 2.16-2.21 0-.135-.1-.231-.24-.231-.127 0-1.253.724-4.16 2.675-2.147 1.441-2.432 1.593-2.984 1.59-.368-.001-1.009-.151-2.056-.479-1.003-.314-1.353-.482-1.439-.69-.133-.321.114-.568.912-.916 6.913-3.015 10.361-4.462 11.753-4.932.751-.253 1.141-.296 1.413-.155z"/>
</symbol>
<symbol id="instagram" viewBox="0 0 32 32">
  <path d="M11.307 2.725c-1.278.05-2.011.122-2.718.266-1.544.315-2.711.944-3.761 2.026-.746.77-1.193 1.49-1.539 2.484-.533 1.532-.62 2.729-.62 8.499s.087 6.967.62 8.499c.224.644.369.938.736 1.501.915 1.4 2.314 2.411 3.975 2.871 1.45.402 2.072.436 8 .436s6.55-.034 8-.436c2.462-.682 4.267-2.522 4.907-5.004.355-1.378.426-2.687.426-7.867 0-5.934-.095-7.108-.703-8.726-.696-1.851-2.302-3.38-4.221-4.017-1.033-.343-1.856-.455-3.929-.536-1.568-.061-7.559-.058-9.173.004zM23.76 7.432c.389.182.587.371.77.739.137.274.163.388.163.713 0 1.659-2.209 2.197-2.972.723-.15-.288-.174-.391-.174-.718.001-.65.297-1.136.864-1.419a1.572 1.572 0 0 1 1.359-.034l-.01-.004zm-6.347 1.874c2.401.535 4.389 2.329 5.093 4.595.287.924.392 2.069.272 2.964-.4 3.005-2.656 5.363-5.625 5.879-.607.106-1.699.106-2.306 0-3.241-.568-5.673-3.361-5.673-6.723v-.022V16c0-3.406 2.444-6.24 5.839-6.771.456-.071 1.952-.023 2.4.077zm-2.32 2.348c-1.646.337-2.985 1.632-3.414 3.306-.137.535-.151 1.443-.029 1.969.207.891.568 1.539 1.225 2.196.902.901 1.859 1.299 3.13 1.301 1.747.002 3.267-.97 4.023-2.573.267-.566.354-.948.385-1.68.022-.547.008-.736-.089-1.153a4.468 4.468 0 0 0-3.399-3.357l-.029-.005c-.49-.101-1.32-.102-1.803-.004z"/>
</symbol>
 <symbol id="icon-close" viewBox="0 0 32 32">
      <path fill="none" stroke-linejoin="round" stroke-linecap="round" stroke-width="2.4" d="m9.334 9.333 13.333 13.333m-13.333.001L22.667 9.334"/>
    </symbol>
</defs>
</svg>
