<svg xmlns="http://www.w3.org/2000/svg" width="228" height="234" fill="none"><g clip-path="url(#a)"><path fill="url(#b)" d="m162.906 81.029-.245-.001a47.168 47.168 0 0 1-35.527-16.174c-13.355-15.313-33.041-24.96-54.978-24.862C32.341 40.168-.509 73.62.006 113.433c.512 39.592 32.766 71.529 72.48 71.529 11.216 0 21.836-2.549 31.314-7.099 8.173-3.922 17.911-2.888 25.108 2.624a55.176 55.176 0 0 0 33.571 11.395c30.393.05 55.343-24.704 55.52-55.097.178-30.677-24.458-55.576-55.093-55.756Z"/><path fill="url(#c)" d="m162.906 81.029-.245-.001a47.168 47.168 0 0 1-35.527-16.174c-13.355-15.313-33.041-24.96-54.978-24.862C32.341 40.168-.509 73.62.006 113.433c.512 39.592 32.766 71.529 72.48 71.529 11.216 0 21.836-2.549 31.314-7.099 8.173-3.922 17.911-2.888 25.108 2.624a55.176 55.176 0 0 0 33.571 11.395c30.393.05 55.343-24.704 55.52-55.097.178-30.677-24.458-55.576-55.093-55.756Z"/><path fill="#7126BC" d="M118.791 159.575a2.129 2.129 0 0 0 2.129-2.129v-3.684a2.129 2.129 0 0 0-2.129-2.129h-.426v-6.963a4.258 4.258 0 0 0-4.257-4.257h-10.216a4.259 4.259 0 0 0-4.257 4.257v6.963h-.426a2.129 2.129 0 0 0-2.128 2.129v3.684c0 1.176.953 2.129 2.128 2.129h.426v32.828h-.426a2.129 2.129 0 0 0-2.128 2.129v3.684c0 1.176.953 2.129 2.128 2.129h.426v6.799a4.256 4.256 0 0 0 4.257 4.257h10.216a4.256 4.256 0 0 0 4.257-4.257v-6.799h.426a2.129 2.129 0 0 0 2.129-2.129v-3.684a2.129 2.129 0 0 0-2.129-2.129h-.426v-32.828h.426ZM205.44 54.112h-40.664C158.095 29.573 135.656 11.53 109 11.53c-26.656 0-49.095 18.044-55.776 42.583H12.56a4.258 4.258 0 0 0-4.257 4.257v20.855a4.256 4.256 0 0 0 4.257 4.257h40.38c6.31 25.087 29.015 43.661 56.06 43.661s49.75-18.574 56.06-43.661h40.38a4.256 4.256 0 0 0 4.257-4.257V58.369a4.258 4.258 0 0 0-4.257-4.257Z" opacity=".1"/><path fill="#B9A1FF" d="M109 136.083c31.926 0 57.807-25.881 57.807-57.806 0-31.926-25.881-57.807-57.807-57.807-31.926 0-57.807 25.88-57.807 57.807 0 31.925 25.881 57.806 57.807 57.806Z"/><path fill="#fff" d="M209.697 67.31v20.855a4.256 4.256 0 0 1-4.257 4.257H12.56a4.256 4.256 0 0 1-4.257-4.257V67.31a4.258 4.258 0 0 1 4.257-4.257h192.88a4.258 4.258 0 0 1 4.257 4.257Z"/><path fill="#6583FE" d="M163.587 97.344a57.656 57.656 0 0 0 3.221-19.068c0-3.12-.247-6.182-.724-9.171H51.915a58.172 58.172 0 0 0-.724 9.171c0 6.684 1.135 13.1 3.221 19.068h109.175Z"/><path fill="#FFC4DF" d="M166.805 78.276c0 4.88-.605 9.621-1.746 14.146H52.941a57.825 57.825 0 0 1-1.745-14.145c0-5.27.707-10.375 2.026-15.223H164.78a57.915 57.915 0 0 1 2.026 15.222Z"/><path fill="#B7C5FF" d="M37.307 92.424H12.562a4.257 4.257 0 0 1-4.257-4.257V67.31a4.257 4.257 0 0 1 4.257-4.257h24.745v29.371Z"/><path fill="#FF7E95" d="M118.365 153.61v62.475a4.256 4.256 0 0 1-4.257 4.257h-10.216a4.256 4.256 0 0 1-4.257-4.257V153.61a4.259 4.259 0 0 1 4.257-4.257h10.216a4.26 4.26 0 0 1 4.257 4.257Z"/><path fill="#FF5B79" d="M99.635 165.045h18.73v7.939h-18.73v-7.939ZM99.635 205.813h18.73v7.943h-18.73v-7.943Z"/><path fill="#97FFD2" d="M118.791 168.516H99.209a2.128 2.128 0 0 1-2.128-2.128v-3.685c0-1.175.953-2.128 2.128-2.128h19.582c1.175 0 2.128.953 2.128 2.128v3.685a2.128 2.128 0 0 1-2.128 2.128ZM118.791 209.286H99.209a2.129 2.129 0 0 1-2.128-2.129v-3.684c0-1.176.953-2.129 2.128-2.129h19.582c1.175 0 2.128.953 2.128 2.129v3.684a2.129 2.129 0 0 1-2.128 2.129Z"/><path fill="#FF5B79" d="M91.405 85.622a2.128 2.128 0 0 1-1.87-1.111l-1.79-3.292-1.792 3.292a2.13 2.13 0 0 1-3.893-.357L78.654 73.72a2.128 2.128 0 1 1 4.046-1.321l1.874 5.74 1.3-2.39a2.128 2.128 0 0 1 3.74 0l1.3 2.39 1.875-5.74a2.129 2.129 0 0 1 4.046 1.32l-3.407 10.435a2.13 2.13 0 0 1-2.023 1.468ZM112.66 85.622a2.128 2.128 0 0 1-1.869-1.111L109 81.22l-1.791 3.291a2.13 2.13 0 0 1-3.893-.357L99.909 73.72a2.128 2.128 0 1 1 4.047-1.32l1.873 5.74 1.301-2.39a2.129 2.129 0 0 1 3.739 0l1.301 2.39 1.874-5.74a2.13 2.13 0 0 1 4.046 1.32l-3.406 10.434a2.13 2.13 0 0 1-2.024 1.468ZM133.916 85.622a2.13 2.13 0 0 1-1.87-1.111l-1.791-3.292-1.791 3.292a2.13 2.13 0 0 1-3.893-.357l-3.407-10.434a2.129 2.129 0 0 1 4.047-1.321l1.874 5.74 1.301-2.39a2.127 2.127 0 0 1 3.739 0l1.301 2.39 1.873-5.74a2.129 2.129 0 0 1 4.047 1.32l-3.407 10.435a2.128 2.128 0 0 1-2.023 1.468Z"/><path fill="#7126BC" d="M109 125.046c16.133 0 30.919-8.152 39.554-21.806a2.128 2.128 0 1 0-3.599-2.275c-7.849 12.413-21.291 19.823-35.955 19.823-14.665 0-28.106-7.41-35.956-19.824a2.129 2.129 0 0 0-3.598 2.275c8.635 13.656 23.42 21.807 39.554 21.807ZM148.554 53.313C139.919 39.659 125.132 31.507 109 31.507S78.08 39.66 69.446 53.313a2.129 2.129 0 1 0 3.599 2.276C80.894 43.176 94.335 35.764 109 35.764c14.664 0 28.106 7.411 35.956 19.825a2.126 2.126 0 0 0 2.937.661 2.129 2.129 0 0 0 .661-2.937Z"/><path fill="#7126BC" d="M205.439 60.924h-39.068C158.912 36.31 136.017 18.341 109 18.341c-27.016 0-49.911 17.97-57.37 42.583H12.562a6.393 6.393 0 0 0-6.386 6.386v20.857a6.393 6.393 0 0 0 6.386 6.386h38.75c6.925 24.51 29.086 42.688 55.559 43.617v9.055h-2.979a6.393 6.393 0 0 0-6.386 6.386v5.193a4.26 4.26 0 0 0-2.554 3.899v3.684a4.263 4.263 0 0 0 2.554 3.9v29.286a4.263 4.263 0 0 0-2.554 3.899v3.685a4.26 4.26 0 0 0 2.554 3.899v5.03a6.393 6.393 0 0 0 6.386 6.386h10.216a6.393 6.393 0 0 0 6.386-6.386v-5.03a4.261 4.261 0 0 0 2.554-3.899v-3.685a4.261 4.261 0 0 0-2.554-3.899v-19.331a2.129 2.129 0 1 0-4.258 0v18.974h-14.472v-28.571h17.027a4.26 4.26 0 0 0 4.257-4.257v-3.685a4.261 4.261 0 0 0-2.554-3.899v-5.193a6.394 6.394 0 0 0-6.386-6.386h-2.979v-9.054c26.474-.93 48.635-19.108 55.56-43.618h38.75a6.394 6.394 0 0 0 6.386-6.385V67.31a6.393 6.393 0 0 0-6.386-6.387Zm-86.648 142.548.003 3.684-19.584.001v-3.684l19.581-.001Zm-4.683 14.743h-10.216a2.13 2.13 0 0 1-2.128-2.128v-4.672h14.472v4.672a2.13 2.13 0 0 1-2.128 2.128ZM99.21 166.388v-3.684l19.581-.001.003 3.684-19.584.001Zm17.026-12.777v4.835h-14.472v-4.835c0-1.174.955-2.129 2.128-2.129h10.216a2.13 2.13 0 0 1 2.128 2.129ZM109 22.599c24.644 0 45.596 16.096 52.906 38.325H56.095C63.405 38.694 84.356 22.6 109 22.6ZM10.434 88.167V67.31a2.13 2.13 0 0 1 2.128-2.128h22.616v25.113H12.562a2.13 2.13 0 0 1-2.128-2.128Zm29.002 2.128V65.182H50.51a59.907 59.907 0 0 0-1.445 13.095c0 4.115.417 8.135 1.211 12.019h-10.84ZM109 133.954c-30.7 0-55.678-24.976-55.678-55.677 0-4.51.543-8.894 1.56-13.095h108.236a55.593 55.593 0 0 1 1.56 13.095c0 4.125-.456 8.146-1.311 12.018H64.63a2.129 2.129 0 1 0 0 4.258h97.619c-6.979 22.785-28.209 39.401-53.249 39.401Zm98.567-45.787a2.13 2.13 0 0 1-2.128 2.128h-37.715a59.958 59.958 0 0 0 1.211-12.018c0-4.498-.501-8.879-1.444-13.095h37.948a2.13 2.13 0 0 1 2.128 2.128v20.857Z"/><path fill="#7126BC" d="M29.29 71.742a6.572 6.572 0 0 0-9.285 0c-2.033 2.032-2.446 5.074-1.25 7.524l-3.017 3.017a2.128 2.128 0 1 0 3.01 3.01l3.017-3.017c.907.443 1.893.67 2.882.67 1.681 0 3.362-.64 4.642-1.92a6.571 6.571 0 0 0 0-9.284Zm-3.01 6.274c-.9.9-2.365.9-3.265 0-.9-.9-.9-2.365 0-3.264a2.3 2.3 0 0 1 1.632-.675 2.3 2.3 0 0 1 1.632.675c.9.9.9 2.364 0 3.264Z"/><path fill="#FF7E95" d="M162.123 150.106a2.129 2.129 0 0 1-2.129-2.129 2.555 2.555 0 0 0-2.552-2.553 2.129 2.129 0 1 1 0-4.257 2.555 2.555 0 0 0 2.552-2.553 2.129 2.129 0 1 1 4.258 0 2.556 2.556 0 0 0 2.553 2.553 2.128 2.128 0 1 1 0 4.257 2.556 2.556 0 0 0-2.553 2.553 2.129 2.129 0 0 1-2.129 2.129Z"/><path fill="#97FFD2" d="M175.576 50.854a2.129 2.129 0 0 1-2.129-2.13 2.555 2.555 0 0 0-2.552-2.552 2.129 2.129 0 1 1 0-4.258 2.555 2.555 0 0 0 2.552-2.552 2.129 2.129 0 1 1 4.258 0 2.555 2.555 0 0 0 2.552 2.552 2.129 2.129 0 1 1 0 4.258 2.555 2.555 0 0 0-2.552 2.553 2.129 2.129 0 0 1-2.129 2.129Z"/><path fill="#FF7E95" d="M37.306 119.32a2.129 2.129 0 0 1-2.128-2.129 2.555 2.555 0 0 0-2.553-2.552 2.129 2.129 0 1 1 0-4.258 2.555 2.555 0 0 0 2.553-2.553 2.129 2.129 0 1 1 4.257 0 2.555 2.555 0 0 0 2.553 2.553 2.129 2.129 0 1 1 0 4.258 2.555 2.555 0 0 0-2.553 2.552 2.129 2.129 0 0 1-2.129 2.129Z"/><path fill="#FF8300" d="M51.193 146.375a2.12 2.12 0 0 1-1.505-.624l-4.681-4.681a2.128 2.128 0 0 1 0-3.01l4.681-4.681a2.127 2.127 0 0 1 3.01 0l4.681 4.681a2.128 2.128 0 0 1 0 3.01l-4.68 4.681c-.416.415-.96.624-1.506.624Zm-1.67-6.81 1.67 1.67 1.67-1.67-1.67-1.671-1.67 1.671Z"/><path fill="#8399FE" d="M134 98h16v9h-16z"/><path fill="#02FFB3" d="M197.551 112.899h-16.537c-6.865 0-12.45-5.585-12.45-12.449 0-6.865 5.585-12.45 12.45-12.45h16.537C204.415 88 210 93.585 210 100.45c0 6.864-5.585 12.449-12.449 12.449Zm-16.537-18.45c-3.308 0-6 2.692-6 6.001 0 3.308 2.692 6 6 6h16.537c3.308 0 6-2.692 6-6 0-3.309-2.692-6-6-6h-16.537ZM148.993 112.899h-16.537c-6.864 0-12.449-5.585-12.449-12.449 0-6.865 5.585-12.45 12.449-12.45h16.537c6.865 0 12.45 5.585 12.45 12.45 0 6.864-5.585 12.449-12.45 12.449Zm-16.537-18.45c-3.308 0-6 2.692-6 6.001 0 3.308 2.692 6 6 6h16.537c3.308 0 6-2.692 6-6 0-3.309-2.692-6-6-6h-16.537Z"/><path fill="#DCFDEE" d="M176.506 103.674h-23.001a3.225 3.225 0 0 1 0-6.45h23.001a3.225 3.225 0 1 1 0 6.45Z"/><path stroke="#7126BC" stroke-width="1.712" d="M196.543 112.124h-16.536c-6.392 0-11.594-5.202-11.594-11.594 0-6.391 5.202-11.593 11.594-11.593h16.536c6.392 0 11.594 5.202 11.594 11.593 0 6.392-5.202 11.594-11.594 11.594Zm-16.536-18.45a6.863 6.863 0 0 0-6.857 6.856 6.863 6.863 0 0 0 6.857 6.857h16.536a6.863 6.863 0 0 0 6.857-6.857 6.863 6.863 0 0 0-6.857-6.856h-16.536Z"/><path fill="#7126BC" stroke="#7126BC" stroke-width="1.712" d="M153.27 103.001h23.001a2.37 2.37 0 0 0 2.369-2.369l-25.37 2.369Zm0 0a2.37 2.37 0 0 1-2.369-2.369m2.369 2.369-2.369-2.369m0 0a2.369 2.369 0 0 1 2.369-2.368m-2.369 2.368 2.369-2.368m0 0h23.001m-23.001 0h23.001m0 0a2.369 2.369 0 0 1 2.369 2.368l-2.369-2.368Z"/><path stroke="#7126BC" stroke-width="1.712" d="M147.986 112.124H131.45c-6.392 0-11.594-5.201-11.594-11.593s5.202-11.593 11.594-11.593h16.536c6.392 0 11.593 5.201 11.593 11.593s-5.201 11.593-11.593 11.593Zm-16.537-18.45a6.863 6.863 0 0 0-6.856 6.857 6.863 6.863 0 0 0 6.856 6.856h16.537a6.862 6.862 0 0 0 6.856-6.856 6.863 6.863 0 0 0-6.856-6.857h-16.537Z"/></g><defs><linearGradient id="b" x1="257.827" x2="-14.673" y1="170.801" y2="115.603" gradientUnits="userSpaceOnUse"><stop offset=".049" stop-color="#EEE6FF"/><stop offset=".999" stop-color="#CBEDEF"/></linearGradient><linearGradient id="c" x1="-12.742" x2="223.974" y1="108.006" y2="115.542" gradientUnits="userSpaceOnUse"><stop offset=".049" stop-color="#FBB"/><stop offset=".999" stop-color="#FFBA7A"/></linearGradient><clipPath id="a"><path fill="#fff" d="M0 8h218v218H0z"/></clipPath></defs></svg>