<svg xmlns="http://www.w3.org/2000/svg" width="228" height="234" fill="none"><path fill="url(#a)" d="M51.77 18.324C-9.55 72.49 69.365 124.994 61.849 184.18c-3.342 26.314 7.274 51.47 42.007 48.595 42.328-3.503 26.963-44.048 35.827-71.04 15.252-46.446 109.08-35.597 70.186-107.14C185.048 8.939 93.975-18.957 51.77 18.324Z"/><path fill="url(#b)" d="M51.77 18.324C-9.55 72.49 69.365 124.994 61.849 184.18c-3.342 26.314 7.274 51.47 42.007 48.595 42.328-3.503 26.963-44.048 35.827-71.04 15.252-46.446 109.08-35.597 70.186-107.14C185.048 8.939 93.975-18.957 51.77 18.324Z"/><path fill="#7126BC" d="M219.236 56.58c0-12.352-10.014-22.365-22.366-22.365s-22.366 10.013-22.366 22.365c0 1.037.077 2.056.213 3.055-14.066-10.17-30.794-15.66-48.276-15.66l-.149.001c-22.271.04-43.202 8.743-58.938 24.505-15.738 15.765-24.406 36.715-24.406 58.991 0 14.949 3.953 28.992 10.863 41.143-5.197 4.095-8.538 10.441-8.538 17.571 0 12.353 10.014 22.366 22.366 22.366 7.118 0 13.454-3.329 17.55-8.51 12.177 6.949 26.26 10.925 41.255 10.925a8.154 8.154 0 1 0 0-16.307 66.79 66.79 0 0 1-36.566-10.849c-1.102-10.444-9.391-18.742-19.83-19.86a66.79 66.79 0 0 1-10.793-36.48c0-36.982 30.086-67.123 67.066-67.189h.119c17.648 0 34.37 6.992 47.096 19.695 12.96 12.937 20.097 30.033 20.097 48.139v12.142c0 7.715-6.277 13.993-13.993 13.993-7.717 0-13.994-6.278-13.994-13.993v-42.83a8.153 8.153 0 0 0-2.388-5.765c-9.658-9.66-22.492-14.934-36.162-14.831-13.658.094-26.429 5.543-35.96 15.342-9.204 9.466-14.274 22.001-14.274 35.296 0 13.296 5.07 25.832 14.275 35.297 9.53 9.799 22.301 15.248 35.959 15.342l.363.002c12.834 0 24.927-4.736 34.308-13.4a30.141 30.141 0 0 0 17.873 5.846c16.707 0 30.3-13.593 30.3-30.3v-12.142c0-17.932-5.635-35.05-16.067-49.377.981.132 1.98.206 2.997.206 12.352.002 22.366-10.011 22.366-22.364ZM127.21 161.805c-9.261-.065-17.919-3.76-24.382-10.406-12.832-13.194-12.832-34.661-.001-47.855 6.464-6.645 15.123-10.34 24.383-10.406h.246c8.085 0 15.738 2.773 21.884 7.878v39.243c0 4.098.818 8.01 2.299 11.579-6.538 6.492-15.218 10.021-24.429 9.967Z" opacity=".1"/><path fill="#FF7E95" d="M126.445 199.786c-46.04 0-83.496-37.456-83.496-83.496 0-22.276 8.667-43.226 24.406-58.99 15.735-15.763 36.666-24.466 58.937-24.505h.15c21.998 0 42.809 8.683 58.615 24.46 16.046 16.018 24.884 37.213 24.884 59.68v12.142c0 16.708-13.593 30.3-30.301 30.3a30.131 30.131 0 0 1-17.872-5.846c-9.382 8.664-21.475 13.4-34.309 13.4l-.363-.001c-13.658-.095-26.429-5.544-35.958-15.343-9.206-9.466-14.276-22.001-14.276-35.296 0-13.296 5.07-25.832 14.275-35.297 9.53-9.799 22.301-15.248 35.959-15.342 13.67-.103 26.504 5.172 36.162 14.83a8.15 8.15 0 0 1 2.389 5.766v42.83c0 7.716 6.277 13.993 13.993 13.993s13.994-6.277 13.994-13.993v-12.142c0-18.106-7.138-35.202-20.098-48.139-12.726-12.703-29.448-19.695-47.096-19.695h-.119c-36.98.066-67.066 30.207-67.066 67.189 0 37.048 30.14 67.189 67.189 67.189a8.154 8.154 0 0 1 .001 16.306Zm1.011-117.83-.246.001c-9.26.065-17.919 3.76-24.383 10.406-12.83 13.194-12.83 34.661.001 47.855 6.463 6.645 15.122 10.341 24.382 10.405 9.211.055 17.891-3.474 24.429-9.967a30.165 30.165 0 0 1-2.299-11.579V89.835c-6.146-5.105-13.799-7.879-21.884-7.879Z"/><path fill="#FF5BA8" d="M185.056 57.255a85.823 85.823 0 0 0-9.458-8.163 22.256 22.256 0 0 0-1.095 6.929c0 12.356 10.017 22.368 22.368 22.368 1.211 0 2.399-.098 3.56-.284-3.966-7.581-9.123-14.612-15.375-20.85Z"/><path fill="#FF8300" d="M196.871 67.764c12.352 0 22.365-10.013 22.365-22.365 0-12.353-10.013-22.366-22.365-22.366-12.353 0-22.366 10.013-22.366 22.366 0 12.352 10.013 22.365 22.366 22.365Z"/><path fill="#fff" d="M204.611 42.693c0-4.268-3.472-7.74-7.74-7.74-4.268 0-7.741 3.472-7.741 7.74 0 2.105.847 4.014 2.216 5.41a7.712 7.712 0 0 0-2.216 5.411 2.33 2.33 0 0 0 4.659 0 3.086 3.086 0 0 1 3.082-3.08 3.085 3.085 0 0 1 3.081 3.08 2.33 2.33 0 1 0 4.659 0 7.712 7.712 0 0 0-2.215-5.41 7.71 7.71 0 0 0 2.215-5.411Zm-7.74-3.08a3.085 3.085 0 0 1 3.081 3.08c0 1.7-1.382 3.082-3.081 3.082a3.085 3.085 0 0 1-3.082-3.082c0-1.699 1.383-3.08 3.082-3.08Z"/><path fill="#9FB0FE" d="M67.64 196.995c12.352 0 22.365-10.013 22.365-22.365 0-12.353-10.013-22.366-22.365-22.366-12.353 0-22.366 10.013-22.366 22.366 0 12.352 10.013 22.365 22.366 22.365Z"/><path fill="#fff" d="M75.38 171.924c0-4.268-3.472-7.74-7.74-7.74-4.268 0-7.74 3.472-7.74 7.74 0 2.105.846 4.014 2.215 5.411a7.711 7.711 0 0 0-2.216 5.41 2.33 2.33 0 1 0 4.66 0 3.085 3.085 0 0 1 3.08-3.081 3.085 3.085 0 0 1 3.082 3.081 2.33 2.33 0 1 0 4.659 0 7.71 7.71 0 0 0-2.215-5.41 7.71 7.71 0 0 0 2.215-5.411Zm-7.74-3.081a3.085 3.085 0 0 1 3.08 3.081 3.084 3.084 0 0 1-3.08 3.081 3.085 3.085 0 0 1-3.082-3.081 3.085 3.085 0 0 1 3.082-3.081Z"/><path fill="#FF7E95" d="M161.077 187.488a2.265 2.265 0 0 1-2.265-2.265 2.863 2.863 0 0 0-2.86-2.86 2.265 2.265 0 1 1 0-4.531 2.863 2.863 0 0 0 2.86-2.859 2.265 2.265 0 1 1 4.531 0 2.862 2.862 0 0 0 2.859 2.859 2.266 2.266 0 1 1 0 4.531 2.863 2.863 0 0 0-2.859 2.86 2.265 2.265 0 0 1-2.266 2.265Z"/><path fill="#FF8300" d="M182.342 204.762a2.267 2.267 0 0 1-2.266-2.266 2.862 2.862 0 0 0-2.859-2.859 2.266 2.266 0 1 1 0-4.532 2.863 2.863 0 0 0 2.859-2.859 2.267 2.267 0 0 1 4.532 0 2.862 2.862 0 0 0 2.859 2.859 2.267 2.267 0 0 1 0 4.532 2.862 2.862 0 0 0-2.859 2.859 2.267 2.267 0 0 1-2.266 2.266Z"/><path fill="#FF7E95" d="M52.178 46.704a2.266 2.266 0 0 1-2.265-2.265 2.863 2.863 0 0 0-2.86-2.86 2.266 2.266 0 1 1 0-4.53 2.863 2.863 0 0 0 2.86-2.86 2.266 2.266 0 1 1 4.531 0 2.863 2.863 0 0 0 2.86 2.86 2.266 2.266 0 1 1 0 4.53 2.863 2.863 0 0 0-2.86 2.86 2.266 2.266 0 0 1-2.266 2.265Z"/><path fill="#fff" d="M13.39 65.492c-.6 0-1.177-.24-1.602-.664l-5.125-5.125a2.266 2.266 0 0 1 0-3.205l5.126-5.124a2.265 2.265 0 0 1 3.203 0l5.125 5.124a2.266 2.266 0 0 1 0 3.205l-5.125 5.125c-.424.425-1 .664-1.602.664Zm-1.92-7.39 1.92 1.92 1.921-1.92-1.92-1.921-1.92 1.92Z"/><path fill="#01ECA5" d="M199.951 190.288c-.579 0-1.16-.222-1.601-.664l-5.126-5.125a2.264 2.264 0 0 1 0-3.205l5.126-5.125a2.266 2.266 0 0 1 3.203 0l5.126 5.125a2.265 2.265 0 0 1 0 3.205l-5.126 5.125a2.26 2.26 0 0 1-1.602.664Zm-1.92-7.391 1.92 1.921 1.921-1.921-1.921-1.921-1.92 1.921Z"/><path fill="#7126BC" d="M150.787 88.092c-6.616-5.495-14.684-8.401-23.331-8.401h-.262c-9.871.07-19.101 4.008-25.991 11.093-13.679 14.065-13.678 36.949.001 51.014 6.889 7.083 16.119 11.023 25.99 11.091.072-.006.15.001.225.001 9.75 0 18.911-3.769 25.817-10.626a2.264 2.264 0 0 0 .496-2.476 27.794 27.794 0 0 1-2.126-10.711V89.835a2.267 2.267 0 0 0-.819-1.743Zm-23.369 60.267-.195-.001c-8.648-.061-16.735-3.513-22.772-9.719-11.984-12.323-11.984-32.374 0-44.696 6.037-6.208 14.126-9.66 22.776-9.72h.229c7.224 0 13.983 2.311 19.618 6.697v38.157c0 3.778.64 7.465 1.905 10.982-5.913 5.367-13.506 8.3-21.561 8.3Z"/><path fill="#7126BC" d="M221.502 45.399c0-13.582-11.05-24.632-24.631-24.632-13.125 0-23.883 10.32-24.592 23.27-13.708-8.848-29.48-13.508-45.837-13.508h-.153c-22.876.04-44.375 8.98-60.537 25.17C49.586 71.892 40.684 93.41 40.684 116.29a85.73 85.73 0 0 0 10.124 40.379c-4.795 4.497-7.8 10.883-7.8 17.96 0 13.582 11.05 24.631 24.631 24.631 12.892 0 23.496-9.957 24.54-22.584a69.115 69.115 0 0 0 34.263 9.067 5.898 5.898 0 0 1 5.891 5.891c0 3.245-2.643 5.886-5.891 5.886a80.84 80.84 0 0 1-24.957-3.923 2.265 2.265 0 1 0-1.397 4.31 85.378 85.378 0 0 0 26.354 4.143c5.747 0 10.422-4.673 10.422-10.417 0-5.746-4.675-10.422-10.422-10.422a64.598 64.598 0 0 1-34.4-9.896c-1.47-10.871-10.052-19.511-20.896-21.064a64.613 64.613 0 0 1-9.623-33.964c0-35.733 29.07-64.858 64.797-64.923h.122c17.044 0 33.201 6.76 45.493 19.035 12.53 12.508 19.431 29.035 19.431 46.536v12.14c0 6.466-5.261 11.727-11.727 11.727-6.467 0-11.727-5.261-11.727-11.727v-14.872a2.266 2.266 0 1 0-4.531 0v14.872c0 8.964 7.293 16.258 16.258 16.258s16.258-7.294 16.258-16.258v-12.14c0-18.712-7.373-36.378-20.76-49.743-13.149-13.129-30.442-20.36-48.695-20.36h-.126c-38.225.07-69.324 31.228-69.324 69.455a69.145 69.145 0 0 0 8.796 33.786 24.467 24.467 0 0 0-11.346 3.774 81.205 81.205 0 0 1-9.228-37.558c0-21.671 8.433-42.053 23.744-57.39 15.308-15.335 35.671-23.802 57.334-23.84h.149c16.589 0 32.544 5.064 46.141 14.645.014.01.031.016.046.026 1.806 10.132 9.823 18.134 19.962 19.919 9.868 13.877 15.084 30.21 15.084 47.285v12.142c0 15.458-12.576 28.034-28.034 28.034-5.99 0-11.707-1.87-16.533-5.408a2.268 2.268 0 0 0-2.877.163c-8.937 8.253-20.575 12.799-32.771 12.799l-.347-.002c-13.048-.09-25.247-5.296-34.351-14.656-8.792-9.04-13.634-21.015-13.634-33.718 0-12.702 4.842-24.676 13.633-33.717 9.105-9.36 21.304-14.566 34.353-14.656l.373-.001c12.902 0 25.025 5.023 34.17 14.17a5.847 5.847 0 0 1 1.724 4.162v12.705a2.266 2.266 0 1 0 4.532 0V86.246c0-2.783-1.084-5.4-3.052-7.367-10.002-10.003-23.26-15.497-37.372-15.497-.136 0-.272 0-.408.002-14.269.099-27.611 5.791-37.567 16.028-9.62 9.89-14.917 22.987-14.917 36.876 0 13.89 5.297 26.986 14.917 36.877 9.956 10.237 23.298 15.929 37.567 16.028l.379.002c12.729 0 24.905-4.529 34.487-12.789 5.273 3.43 11.352 5.235 17.694 5.235 17.957 0 32.565-14.609 32.565-32.566v-12.141c0-16.822-4.797-32.962-13.906-46.95 12.919-.741 23.203-11.483 23.203-24.585ZM87.74 174.63c0 11.083-9.017 20.1-20.1 20.1-11.084 0-20.1-9.017-20.1-20.1 0-11.084 9.016-20.101 20.1-20.101 11.083 0 20.1 9.017 20.1 20.101ZM196.87 65.499c-11.083 0-20.1-9.017-20.1-20.1 0-11.084 9.017-20.1 20.1-20.1 11.083 0 20.1 9.016 20.1 20.1 0 11.083-9.017 20.1-20.1 20.1Z"/><defs><linearGradient id="a" x1="28.265" x2="219.236" y1="117" y2="117" gradientUnits="userSpaceOnUse"><stop offset=".049" stop-color="#D2DEFF"/><stop offset=".999" stop-color="#DCFDEE"/></linearGradient><linearGradient id="b" x1="17.104" x2="224.611" y1="104.888" y2="108.676" gradientUnits="userSpaceOnUse"><stop offset=".049" stop-color="#FBB"/><stop offset=".999" stop-color="#FFBA7A"/></linearGradient></defs></svg>