<svg xmlns="http://www.w3.org/2000/svg" width="228" height="234" fill="none"><g clip-path="url(#a)"><path fill="url(#b)" d="M141.714 40.837C131.92 16.766 108.227-.169 80.597.002 45.349.219 16.367 28.65 15.512 63.888c-.421 17.386 5.932 33.282 16.606 45.238 8.51 9.532 12.78 22.086 12.35 34.857a88.287 88.287 0 0 0-.024 5.128c1.126 46.343 40.715 84.917 87.072 84.889 48.049-.029 86.991-38.989 86.991-87.045 0-35.225-20.924-65.56-51.021-79.26a50.259 50.259 0 0 1-25.772-26.858Z"/><path fill="url(#c)" d="M141.714 40.837C131.92 16.766 108.227-.169 80.597.002 45.349.219 16.367 28.65 15.512 63.888c-.421 17.386 5.932 33.282 16.606 45.238 8.51 9.532 12.78 22.086 12.35 34.857a88.287 88.287 0 0 0-.024 5.128c1.126 46.343 40.715 84.917 87.072 84.889 48.049-.029 86.991-38.989 86.991-87.045 0-35.225-20.924-65.56-51.021-79.26a50.259 50.259 0 0 1-25.772-26.858Z"/><path fill="#7126BC" d="M208.406 47.246v129.911a6.857 6.857 0 0 1-6.855 6.855H32.449a6.858 6.858 0 0 1-6.855-6.855V47.246a6.858 6.858 0 0 1 6.855-6.856h169.102a6.858 6.858 0 0 1 6.855 6.856Z" opacity=".1"/><path fill="#fff" d="M208.406 56.843v129.911a6.858 6.858 0 0 1-6.855 6.856H32.449a6.858 6.858 0 0 1-6.855-6.856V56.844a6.858 6.858 0 0 1 6.855-6.856h169.102a6.858 6.858 0 0 1 6.855 6.855Z"/><path fill="#D2DEFF" d="M190.908 193.609H43.092v-12.396c0-.757.614-1.371 1.371-1.371h145.074c.757 0 1.371.614 1.371 1.371v12.396ZM43.092 72.003h147.816v9.654c0 .758-.614 1.371-1.372 1.371H44.463a1.371 1.371 0 0 1-1.371-1.37v-9.655Z"/><path fill="#8D65FE" d="M208.406 72.003v-15.16a6.855 6.855 0 0 0-6.855-6.856H32.449a6.856 6.856 0 0 0-6.855 6.856v15.16h182.812Z"/><path fill="#7126BC" d="M42.998 63.314a2.285 2.285 0 0 1-2.285-2.286v-.066a2.285 2.285 0 1 1 4.57 0v.066a2.285 2.285 0 0 1-2.285 2.286ZM51.83 63.314a2.285 2.285 0 0 1-2.285-2.286v-.066a2.285 2.285 0 1 1 4.57 0v.066a2.285 2.285 0 0 1-2.284 2.286ZM60.662 63.314a2.285 2.285 0 0 1-2.285-2.286v-.066a2.285 2.285 0 1 1 4.57 0v.066a2.285 2.285 0 0 1-2.285 2.286Z"/><path fill="#7126BC" d="M201.551 47.702H32.449c-5.04 0-9.14 4.1-9.14 9.141v15.184a2.285 2.285 0 0 0 2.285 2.286c.082 0 .16-.016.239-.025h182.573a2.285 2.285 0 0 0 2.285-2.285v-15.16c0-5.04-4.1-9.14-9.14-9.14Zm-169.102 4.57h169.102c2.52 0 4.57 2.05 4.57 4.571v12.875H27.879V56.843c0-2.52 2.05-4.57 4.57-4.57ZM208.406 82.305a2.285 2.285 0 0 0-2.285 2.285v102.162c0 2.52-2.05 4.571-4.57 4.571H32.449a4.576 4.576 0 0 1-4.57-4.571V84.566a2.285 2.285 0 1 0-4.57 0v102.187c0 5.04 4.1 9.14 9.14 9.14h169.102c5.04 0 9.14-4.1 9.14-9.14V84.59a2.285 2.285 0 0 0-2.285-2.285Z"/><path fill="#FF7EAC" d="M97.784 130.868h-53.32a1.37 1.37 0 0 1-1.372-1.371V92.41c0-.758.614-1.371 1.371-1.371h53.32c.758 0 1.372.613 1.372 1.37v37.088a1.37 1.37 0 0 1-1.371 1.371Z"/><path fill="#fff" d="M64.498 104.846v12.214a1.371 1.371 0 0 0 2.06 1.186l10.51-6.107c.91-.529.91-1.843 0-2.371l-10.51-6.107a1.37 1.37 0 0 0-2.06 1.185Z"/><path fill="#B7C5FF" d="M108.979 162.599H45.382a2.289 2.289 0 0 1 0-4.578h63.597a2.29 2.29 0 0 1 0 4.578Z"/><path fill="#8D65FE" d="M108.979 145.696H77.755a2.289 2.289 0 0 1 0-4.578h31.224a2.289 2.289 0 1 1 0 4.578Z"/><path fill="#B7C5FF" d="M108.979 171.678H45.382a2.289 2.289 0 0 1 0-4.578h63.597a2.29 2.29 0 0 1 0 4.578ZM188.619 112.423h-76.206a2.29 2.29 0 0 1 0-4.578h76.206a2.29 2.29 0 0 1 0 4.578Z"/><path fill="#FFA8CF" d="M161.197 95.616h-48.784a2.289 2.289 0 1 1 0-4.577h48.784a2.289 2.289 0 1 1 0 4.577Z"/><path fill="#B7C5FF" d="M188.619 121.502h-76.206a2.288 2.288 0 1 1 0-4.577h76.206a2.289 2.289 0 1 1 0 4.577ZM188.619 130.773h-76.206a2.29 2.29 0 0 1 0-4.578h76.206a2.29 2.29 0 0 1 0 4.578Z"/><path fill="#8D65FE" d="M189.537 171.678h-67.969a1.371 1.371 0 0 1-1.371-1.371v-27.818c0-.757.614-1.371 1.371-1.371h67.969c.757 0 1.371.614 1.371 1.371v27.818c0 .757-.614 1.371-1.371 1.371Z"/><path fill="#D2DEFF" d="M163.281 158.953a2.555 2.555 0 1 0 0-5.11 2.555 2.555 0 0 0 0 5.11ZM155.552 158.953a2.555 2.555 0 1 0 0-5.11 2.555 2.555 0 0 0 0 5.11ZM147.824 158.953a2.555 2.555 0 1 0 0-5.11 2.555 2.555 0 0 0 0 5.11Z"/><path fill="#FF8300" d="M48.76 217.155a2.286 2.286 0 0 1-1.615-.669l-5.036-5.036a2.285 2.285 0 0 1 0-3.232l5.035-5.035a2.283 2.283 0 0 1 3.232 0l5.036 5.035a2.287 2.287 0 0 1 0 3.233l-5.036 5.035a2.286 2.286 0 0 1-1.616.669Zm-1.803-7.321 1.803 1.804 1.804-1.804-1.804-1.804-1.803 1.804ZM132.074 28.328c-.606 0-1.187-.24-1.615-.67l-5.036-5.035a2.284 2.284 0 0 1 0-3.232l5.036-5.035a2.285 2.285 0 0 1 3.231 0l5.036 5.035c.892.893.892 2.34 0 3.232l-5.036 5.035a2.283 2.283 0 0 1-1.616.67Zm-1.804-7.32 1.804 1.803 1.804-1.804-1.804-1.804-1.804 1.804Z"/><path fill="#FF7EAC" d="M190.908 220.314c-.585 0-1.17-.223-1.616-.669l-5.036-5.036a2.282 2.282 0 0 1 0-3.232l5.036-5.035a2.284 2.284 0 0 1 3.231 0l5.036 5.035c.892.893.892 2.34 0 3.232l-5.036 5.036a2.278 2.278 0 0 1-1.615.669Zm-1.804-7.321 1.804 1.804 1.803-1.804-1.803-1.804-1.804 1.804Z"/><path fill="#97FFD2" d="M155.553 33.363a2.285 2.285 0 0 1-2.286-2.285 2.754 2.754 0 0 0-2.75-2.75 2.285 2.285 0 1 1 0-4.57 2.754 2.754 0 0 0 2.75-2.75 2.285 2.285 0 0 1 4.571 0 2.753 2.753 0 0 0 2.75 2.75 2.285 2.285 0 1 1 0 4.57 2.754 2.754 0 0 0-2.75 2.75 2.285 2.285 0 0 1-2.285 2.285Z"/></g><defs><linearGradient id="b" x1="13.225" x2="200.3" y1="21.502" y2="219.465" gradientUnits="userSpaceOnUse"><stop stop-color="#FFDBED"/><stop offset="1" stop-color="#DCFDEE"/></linearGradient><linearGradient id="c" x1="3.627" x2="224.212" y1="104.784" y2="109.028" gradientUnits="userSpaceOnUse"><stop offset=".049" stop-color="#FBB"/><stop offset=".999" stop-color="#FFBA7A"/></linearGradient><clipPath id="a"><path fill="#fff" d="M0 0h228v234H0z"/></clipPath></defs></svg>