<svg xmlns="http://www.w3.org/2000/svg" width="228" height="234" fill="none"><path fill="url(#a)" d="M167.412 82.538h-.244a46.739 46.739 0 0 1-35.201-16.026C118.735 51.34 99.23 41.78 77.494 41.877c-39.45.175-71.998 33.32-71.488 72.768.507 39.228 32.465 70.873 71.814 70.873 11.114 0 21.637-2.526 31.028-7.034 8.097-3.887 17.746-2.862 24.877 2.599a54.664 54.664 0 0 0 33.263 11.291c30.115.05 54.836-24.477 55.011-54.591.176-30.396-24.233-55.066-54.587-55.245Z"/><path fill="url(#b)" d="M167.412 82.538h-.244a46.739 46.739 0 0 1-35.201-16.026C118.735 51.34 99.23 41.78 77.494 41.877c-39.45.175-71.998 33.32-71.488 72.768.507 39.228 32.465 70.873 71.814 70.873 11.114 0 21.637-2.526 31.028-7.034 8.097-3.887 17.746-2.862 24.877 2.599a54.664 54.664 0 0 0 33.263 11.291c30.115.05 54.836-24.477 55.011-54.591.176-30.396-24.233-55.066-54.587-55.245Z"/><path fill="#7126BC" d="M198.375 49.166v119.918a6.33 6.33 0 0 1-6.328 6.329H35.953a6.33 6.33 0 0 1-6.328-6.329V49.166a6.33 6.33 0 0 1 6.328-6.328h156.094a6.33 6.33 0 0 1 6.328 6.328Z" opacity=".1"/><path fill="#fff" d="M198.375 58.026v119.918a6.33 6.33 0 0 1-6.328 6.328H35.953a6.33 6.33 0 0 1-6.328-6.328V58.026a6.33 6.33 0 0 1 6.328-6.328h156.094a6.33 6.33 0 0 1 6.328 6.328Z"/><path fill="#D2DEFF" d="M44.997 72.02h138.006v45.632H44.997V72.02Z"/><path fill="#FF7EB8" d="M151.995 140.365h-77.99A2.006 2.006 0 0 1 72 138.359V84.113c0-1.108.898-2.005 2.005-2.005h77.99c1.107 0 2.005.897 2.005 2.005v54.246a2.006 2.006 0 0 1-2.005 2.006Z"/><path fill="#fff" d="M103.309 102.304v17.864c0 1.546 1.675 2.511 3.012 1.734l15.373-8.932c1.331-.773 1.331-2.695 0-3.468l-15.373-8.932c-1.337-.777-3.012.188-3.012 1.734Z"/><path fill="#FE9C65" d="M152.429 175.108H74.571c-.868 0-1.571-.482-1.571-1.077v-21.846c0-.595.703-1.077 1.57-1.077h77.859c.868 0 1.571.482 1.571 1.077v21.846c0 .595-.704 1.077-1.571 1.077ZM198.375 72.02V58.026a6.328 6.328 0 0 0-6.328-6.328H35.953a6.328 6.328 0 0 0-6.328 6.328V72.02h168.75Z"/><path fill="#FFA8CF" d="m114.568 171.398 13.2 35.523c.556 1.496 2.607 1.655 3.387.264l7.503-13.385a1.87 1.87 0 0 1 .718-.718l13.384-7.503c1.392-.78 1.232-2.831-.263-3.387l-35.523-13.2c-1.501-.558-2.964.905-2.406 2.406Z"/><path fill="#7126BC" d="M43.581 61.828v.062a2.11 2.11 0 1 0 4.22 0v-.062a2.109 2.109 0 1 0-4.22 0ZM51.734 61.828v.062a2.109 2.109 0 1 0 4.22 0v-.062a2.109 2.109 0 1 0-4.22 0ZM59.887 61.828v.062a2.11 2.11 0 1 0 4.219 0v-.062a2.109 2.109 0 1 0-4.22 0Z"/><path fill="#7126BC" d="M192.047 49.588H35.953c-4.652 0-8.437 3.785-8.437 8.438V72.02a2.11 2.11 0 0 0 2.109 2.11h154.266a2.109 2.109 0 1 0 0-4.22H31.734V58.026a4.224 4.224 0 0 1 4.22-4.219h156.093a4.224 4.224 0 0 1 4.219 4.219v119.917a4.224 4.224 0 0 1-4.219 4.219h-36.646a3.936 3.936 0 0 0-2.17-1.946l-35.523-13.201a3.936 3.936 0 0 0-4.201.917 3.938 3.938 0 0 0-.917 4.201l3.727 10.029H35.953a4.224 4.224 0 0 1-4.219-4.219V83.639a2.109 2.109 0 1 0-4.218 0v94.304c0 4.652 3.785 8.437 8.437 8.437h81.932l7.906 21.277a3.941 3.941 0 0 0 3.743 2.594c1.441 0 2.747-.76 3.461-2.035l7.47-13.326 13.327-7.47c.481-.27.883-.627 1.204-1.04h37.051c4.652 0 8.437-3.785 8.437-8.437V58.026c0-4.653-3.785-8.438-8.437-8.438Zm-53.704 141.655a3.983 3.983 0 0 0-1.525 1.525l-7.252 12.937-12.841-34.555 34.555 12.841-12.937 7.252Z"/><path fill="#97FFD2" d="M109.39 206.836a2.11 2.11 0 0 1-2.109-2.11 2.541 2.541 0 0 0-2.538-2.538 2.109 2.109 0 1 1 0-4.219 2.54 2.54 0 0 0 2.538-2.538 2.109 2.109 0 1 1 4.218 0 2.541 2.541 0 0 0 2.538 2.538 2.11 2.11 0 1 1 0 4.219 2.54 2.54 0 0 0-2.538 2.538 2.11 2.11 0 0 1-2.109 2.11Z"/><path fill="#FF7EB8" d="m109.607 36.55-4.638-4.64a2.109 2.109 0 0 0-2.983 0l-4.639 4.64a2.109 2.109 0 0 0 0 2.982l4.639 4.638c.412.412.952.618 1.491.618.54 0 1.08-.206 1.492-.618l4.638-4.638a2.108 2.108 0 0 0 0-2.983Zm-6.13 3.146-1.655-1.656 1.655-1.655 1.655 1.655-1.655 1.656Z"/><path fill="#FF8300" d="M83.385 28.647a2.54 2.54 0 0 1-2.538-2.538 2.11 2.11 0 1 0-4.219 0c0 1.4-1.138 2.538-2.538 2.538a2.109 2.109 0 1 0 0 4.22c1.4 0 2.538 1.137 2.538 2.537a2.109 2.109 0 1 0 4.219 0 2.54 2.54 0 0 1 2.538-2.538 2.11 2.11 0 1 0 0-4.219ZM161.14 36.55l-4.638-4.64a2.109 2.109 0 0 0-2.983 0l-4.638 4.64a2.107 2.107 0 0 0 0 2.982l4.638 4.638c.412.412.952.618 1.492.618.539 0 1.079-.206 1.491-.618l4.638-4.638a2.108 2.108 0 0 0 0-2.983Zm-6.129 3.146-1.656-1.656 1.656-1.655 1.655 1.655-1.655 1.656Z"/><defs><linearGradient id="a" x1="268.552" x2="13.448" y1="128.896" y2="94.759" gradientUnits="userSpaceOnUse"><stop stop-color="#FFDBED"/><stop offset="1" stop-color="#DCFDEE"/></linearGradient><linearGradient id="b" x1="-6.625" x2="227.919" y1="109.268" y2="116.735" gradientUnits="userSpaceOnUse"><stop offset=".049" stop-color="#FBB"/><stop offset=".999" stop-color="#FFBA7A"/></linearGradient></defs></svg>