<svg xmlns="http://www.w3.org/2000/svg" width="312" height="160" fill="none"><g clip-path="url(#a)"><path fill="url(#b)" d="M49.382 116.928c16.107 15.025 41.244 17.098 59.843 6.218 5.292-3.094 11.7-4.132 17.847-2.895 14.549 2.93 29.769.929 42.732-5.451 8.715-4.288 19.33-3.543 27.462 1.601 5.398 3.414 11.667 5.861 18.556 7.012 25.553 4.27 50.397-11.098 55.31-34.233 5.023-23.66-12.274-46.399-38.349-50.61a52.156 52.156 0 0 0-18.616.34c-9.65 1.942-19.733-1.304-25.96-8.265-3.931-4.394-8.672-8.315-14.177-11.573-28.455-16.835-66.572-9.567-85.139 16.234l-.059.081c-3.4 4.744-8.689 8.126-14.805 9.245-8.92 1.633-17.424 5.603-24.317 11.91-18.149 16.606-18.3 43.623-.328 60.386Z"/><path fill="url(#c)" d="M49.382 116.928c16.107 15.025 41.244 17.098 59.843 6.218 5.292-3.094 11.7-4.132 17.847-2.895 14.549 2.93 29.769.929 42.732-5.451 8.715-4.288 19.33-3.543 27.462 1.601 5.398 3.414 11.667 5.861 18.556 7.012 25.553 4.27 50.397-11.098 55.31-34.233 5.023-23.66-12.274-46.399-38.349-50.61a52.156 52.156 0 0 0-18.616.34c-9.65 1.942-19.733-1.304-25.96-8.265-3.931-4.394-8.672-8.315-14.177-11.573-28.455-16.835-66.572-9.567-85.139 16.234l-.059.081c-3.4 4.744-8.689 8.126-14.805 9.245-8.92 1.633-17.424 5.603-24.317 11.91-18.149 16.606-18.3 43.623-.328 60.386Z"/><path fill="#7126BC" fill-rule="evenodd" d="M93.178 102 124 71.916V48.219c0-2.33-1.875-4.219-4.189-4.219H61.189C58.875 44 57 45.889 57 48.219V97.78c0 2.33 1.875 4.219 4.19 4.219h31.988ZM211.178 102 242 71.916V48.219c0-2.33-1.875-4.219-4.189-4.219h-58.622c-2.314 0-4.189 1.889-4.189 4.219V97.78c0 2.33 1.875 4.219 4.189 4.219h31.989Z" clip-rule="evenodd" opacity=".1"/><path fill="#fff" d="M117 19v106.504c0 11.318 3.572 20.496 7.978 20.496h59.043c4.406 0 7.979-9.175 7.979-20.496V19h-75Z"/><path fill="#B7C5FF" d="m169.732 27.349 3.714-8.356h-37.965l3.713 8.356a4.01 4.01 0 0 0 3.813 2.757h22.912a4.009 4.009 0 0 0 3.813-2.758Z"/><path fill="#FE9FB0" d="M61 52a4 4 0 0 1 4-4h178a4 4 0 0 1 4 4v61a4 4 0 0 1-4 4H65a4 4 0 0 1-4-4V52Z"/><g clip-path="url(#d)"><path fill="#FBD242" d="M116 116c16.569 0 30-13.431 30-30 0-16.569-13.431-30-30-30-16.569 0-30 13.431-30 30 0 16.569 13.431 30 30 30Z"/><path fill="#01ECA5" d="M247 136V78.407C233.12 74.906 218.192 73 202.664 73c-57.58 0-106.714 26.176-126.046 63H247Z"/><path fill="#97FFD2" d="M201.565 136H61V96.936C75.6 90.016 93.028 86 111.751 86c43.006 0 79.203 21.2 89.814 50Z"/><path fill="#fff" d="M193 69c6.075 0 11-3.358 11-7.5 0-4.142-4.925-7.5-11-7.5s-11 3.358-11 7.5c0 4.142 4.925 7.5 11 7.5Z"/><path fill="#fff" d="M203.5 66c-2.485 0-4.5-1.567-4.5-3.5s2.015-3.5 4.5-3.5 4.5 1.567 4.5 3.5-2.015 3.5-4.5 3.5Z"/><g fill="#fff" opacity=".8"><path d="M76.738 75.326c-1.746 0-3.162-1.326-3.162-2.962 0-1.635 1.416-2.961 3.162-2.961s3.162 1.326 3.162 2.961c0 1.636-1.416 2.962-3.162 2.962Z"/><path d="M72.714 72.615c-2.064 0-3.737-1.567-3.737-3.5s1.673-3.5 3.737-3.5 3.737 1.567 3.737 3.5-1.673 3.5-3.737 3.5ZM60.063 77.3c-2.064 0-3.737-1.567-3.737-3.5s1.673-3.5 3.737-3.5 3.737 1.567 3.737 3.5-1.673 3.5-3.737 3.5Z"/><path d="M73.289 76.923c-1.746 0-3.162-1.326-3.162-2.962 0-1.635 1.416-2.961 3.162-2.961s3.162 1.326 3.162 2.962c0 1.635-1.416 2.961-3.162 2.961Z"/><path d="M66.965 78c-2.699 0-4.887-2.05-4.887-4.577 0-2.528 2.188-4.577 4.887-4.577 2.699 0 4.887 2.05 4.887 4.577 0 2.528-2.188 4.577-4.887 4.577Z"/><path d="M63.8 74.5c-4.253 0-7.7-2.35-7.7-5.25S59.547 64 63.8 64s7.7 2.35 7.7 5.25-3.447 5.25-7.7 5.25Z"/></g><g fill="#fff" opacity=".8"><path d="M238.033 59.281c1.122 0 2.032-.852 2.032-1.904 0-1.051-.91-1.904-2.032-1.904-1.123 0-2.033.853-2.033 1.904 0 1.052.91 1.904 2.033 1.904Z"/><path d="M240.619 57.538c1.327 0 2.403-1.007 2.403-2.25 0-1.242-1.076-2.25-2.403-2.25-1.326 0-2.402 1.008-2.402 2.25 0 1.243 1.076 2.25 2.402 2.25ZM248.752 60.55c1.327 0 2.403-1.007 2.403-2.25s-1.076-2.25-2.403-2.25c-1.326 0-2.402 1.007-2.402 2.25s1.076 2.25 2.402 2.25Z"/><path d="M240.25 60.308c1.123 0 2.033-.853 2.033-1.904 0-1.052-.91-1.904-2.033-1.904-1.123 0-2.033.852-2.033 1.904 0 1.051.91 1.904 2.033 1.904Z"/><path d="M244.315 61c1.735 0 3.142-1.317 3.142-2.942 0-1.625-1.407-2.943-3.142-2.943-1.735 0-3.141 1.318-3.141 2.943S242.58 61 244.315 61Z"/><path d="M246.35 58.75c2.734 0 4.95-1.511 4.95-3.375S249.084 52 246.35 52s-4.95 1.511-4.95 3.375 2.216 3.375 4.95 3.375Z"/></g></g><path stroke="#657BE0" stroke-width="2" d="M62 52a3 3 0 0 1 3-3h178a3 3 0 0 1 3 3v61a3 3 0 0 1-3 3H65a3 3 0 0 1-3-3V52Z"/><path fill="#FE9FB0" stroke="#657BE0" stroke-width="2" d="M116 42h76v81h-76V42Z"/><g clip-path="url(#e)"><path fill="#fff" d="M158.517 67.18c2.495 0 4.517-1.894 4.517-4.23 0-2.337-2.022-4.232-4.517-4.232-2.495 0-4.517 1.895-4.517 4.231 0 2.337 2.022 4.23 4.517 4.23Z"/><path fill="#fff" d="M164.266 63.308c2.948 0 5.338-2.239 5.338-5 0-2.762-2.39-5-5.338-5s-5.338 2.238-5.338 5c0 2.761 2.39 5 5.338 5ZM182.338 70c2.948 0 5.338-2.239 5.338-5s-2.39-5-5.338-5S177 62.239 177 65s2.39 5 5.338 5Z"/><path fill="#fff" d="M163.445 69.462c2.494 0 4.517-1.895 4.517-4.231 0-2.337-2.023-4.231-4.517-4.231-2.495 0-4.517 1.894-4.517 4.23 0 2.337 2.022 4.231 4.517 4.231Z"/><path fill="#fff" d="M172.478 71c3.856 0 6.981-2.927 6.981-6.538 0-3.612-3.125-6.539-6.981-6.539-3.855 0-6.98 2.927-6.98 6.538 0 3.612 3.125 6.539 6.98 6.539Z"/><path fill="#fff" d="M177 66c6.075 0 11-3.358 11-7.5 0-4.142-4.925-7.5-11-7.5s-11 3.358-11 7.5c0 4.142 4.925 7.5 11 7.5Z"/><path fill="#FBD242" d="M116 116c16.569 0 30-13.431 30-30 0-16.569-13.431-30-30-30-16.569 0-30 13.431-30 30 0 16.569 13.431 30 30 30Z"/><path fill="#01ECA5" d="M247 136V78.407C233.12 74.906 218.192 73 202.664 73c-57.58 0-106.714 26.176-126.046 63H247Z"/><path fill="#97FFD2" d="M201.565 136H61V96.936C75.6 90.016 93.028 86 111.751 86c43.006 0 79.203 21.2 89.814 50Z"/></g><path stroke="#7126BC" stroke-width="3" d="M134 17.5h-9c-5.523 0-10 4.477-10 10V138c0 5.523 4.477 10 10 10h58c5.523 0 10-4.477 10-10V27.5c0-5.523-4.477-10-10-10h-8.5m-40.5 0 3.699 7.113A10 10 0 0 0 146.571 30h15.358a10 10 0 0 0 8.872-5.387L174.5 17.5m-40.5 0h40.5"/><path fill="#FF8300" d="M242.375 14.69a2.3 2.3 0 0 1-2.305-2.295 2.762 2.762 0 0 0-2.765-2.754A2.3 2.3 0 0 1 235 7.345a2.3 2.3 0 0 1 2.305-2.295 2.762 2.762 0 0 0 2.765-2.755A2.3 2.3 0 0 1 242.375 0a2.3 2.3 0 0 1 2.305 2.295c0 1.52 1.24 2.755 2.765 2.755a2.3 2.3 0 0 1 2.305 2.295 2.3 2.3 0 0 1-2.305 2.296 2.762 2.762 0 0 0-2.765 2.754 2.3 2.3 0 0 1-2.305 2.295Z"/><path fill="#97FFD2" d="M59.375 153.69a2.3 2.3 0 0 1-2.305-2.295 2.763 2.763 0 0 0-2.765-2.754A2.3 2.3 0 0 1 52 146.345a2.3 2.3 0 0 1 2.305-2.295 2.763 2.763 0 0 0 2.765-2.755A2.3 2.3 0 0 1 59.375 139a2.3 2.3 0 0 1 2.305 2.295 2.763 2.763 0 0 0 2.765 2.755 2.3 2.3 0 0 1 2.305 2.295 2.3 2.3 0 0 1-2.305 2.296 2.763 2.763 0 0 0-2.765 2.754 2.3 2.3 0 0 1-2.305 2.295Z"/><path fill="#FF7EB8" d="M264.375 40.69c-.59 0-1.18-.224-1.63-.672l-5.07-5.05c-.9-.897-.9-2.35 0-3.246l5.07-5.05c.9-.896 2.36-.896 3.259 0l5.071 5.05c.9.896.9 2.35 0 3.246l-5.071 5.05a2.301 2.301 0 0 1-1.629.672Zm-1.811-7.345 1.811 1.803 1.811-1.803-1.811-1.804-1.811 1.804Z"/></g><defs><clipPath id="a"><path fill="#fff" d="M0 0h312v160H0z"/></clipPath><clipPath id="d"><rect width="186" height="69" x="61" y="48" fill="#fff" rx="4"/></clipPath><clipPath id="e"><path fill="#fff" d="M115 41h78v81h-78z"/></clipPath><linearGradient id="b" x1="286.384" x2="29.748" y1="76.265" y2="65.044" gradientUnits="userSpaceOnUse"><stop offset=".049" stop-color="#FFDBED"/><stop offset=".999" stop-color="#D2DEFF"/></linearGradient><linearGradient id="c" x1="285.794" x2="29.76" y1="76.265" y2="65.097" gradientUnits="userSpaceOnUse"><stop offset=".049" stop-color="#FBB"/><stop offset=".999" stop-color="#FFBA7A"/></linearGradient></defs></svg>