<svg xmlns="http://www.w3.org/2000/svg" width="312" height="160" fill="none"><g clip-path="url(#a)"><g clip-path="url(#b)"><path fill="url(#c)" d="M234.278 33.344c-23.764-18.27-46.815-3.38-72.525-8.645-25.897-5.303-36.214-22.96-65.709-14.81-26.128 7.22-41.981 36.165-27.618 60.399 4.093 6.905 11.066 12.115 13.915 19.842 4.597 12.464-2.4 22.034-1.035 34.283 5.672 50.897 83.4 31.182 112.001 15.347 44.854-24.834 75.198-80.102 40.971-106.416Z"/><path fill="url(#d)" d="M234.278 33.344c-23.764-18.27-46.815-3.38-72.525-8.645-25.897-5.303-36.214-22.96-65.709-14.81-26.128 7.22-41.981 36.165-27.618 60.399 4.093 6.905 11.066 12.115 13.915 19.842 4.597 12.464-2.4 22.034-1.035 34.283 5.672 50.897 83.4 31.182 112.001 15.347 44.854-24.834 75.198-80.102 40.971-106.416Z"/><path fill="#97FFD2" stroke="#7126BC" stroke-width="3" d="M205.5 27.515v91.97c0 3.36-2.641 6.015-5.804 6.015h-89.392c-3.163 0-5.804-2.655-5.804-6.015v-91.97c0-3.36 2.641-6.015 5.804-6.015h89.392c3.163 0 5.804 2.655 5.804 6.015Z"/><path fill="#02FFB3" d="M207.724 40.83v43.158c-15.029 9.307-32.746 14.677-51.721 14.677-18.977 0-36.702-5.37-51.727-14.677V40.83c15.029-9.307 32.75-14.676 51.727-14.676 18.978 0 36.696 5.37 51.721 14.676Z"/><path fill="#D2DEFF" stroke="#7126BC" stroke-width="4" d="M239.415 60.62a9.287 9.287 0 0 0 .001-12.673c-18.313-19.64-44.427-31.924-73.412-31.924-28.986 0-55.106 12.285-73.42 31.924a9.286 9.286 0 0 0 .001 12.672c18.319 19.64 44.433 31.917 73.419 31.917 28.978 0 55.092-12.278 73.411-31.917Z"/><path fill="#8399FE" d="M166 75.579c11.763 0 21.299-9.536 21.299-21.3 0-11.762-9.536-21.298-21.299-21.298s-21.299 9.536-21.299 21.299S154.237 75.579 166 75.579Z"/><path fill="#fff" d="M131.805 49.026a1.817 1.817 0 0 1-1.285-3.1l6.418-6.419a1.817 1.817 0 0 1 2.569 2.569l-6.418 6.418a1.81 1.81 0 0 1-1.284.532ZM122.244 49.026a1.817 1.817 0 0 1-1.285-3.1l6.418-6.419a1.817 1.817 0 0 1 2.569 2.569l-6.418 6.418a1.81 1.81 0 0 1-1.284.532ZM203.338 69.584a1.815 1.815 0 0 1-1.284-3.1l6.418-6.419a1.816 1.816 0 1 1 2.568 2.57l-6.418 6.417a1.809 1.809 0 0 1-1.284.532ZM193.777 69.584a1.815 1.815 0 0 1-1.284-3.1l6.418-6.419a1.816 1.816 0 1 1 2.568 2.57l-6.418 6.417a1.809 1.809 0 0 1-1.284.532Z"/><path fill="#9FB0FE" d="M166 71.063c9.269 0 16.783-7.514 16.783-16.783 0-9.27-7.514-16.783-16.783-16.783-9.269 0-16.783 7.514-16.783 16.783 0 9.269 7.514 16.783 16.783 16.783Z"/><path fill="#6583FE" d="M164.25 60.121a5.16 5.16 0 1 0 0-10.318 5.16 5.16 0 0 0 0 10.318Z"/><path fill="#D2DEFF" d="M169.804 55.367a3.869 3.869 0 1 0 0-7.738 3.869 3.869 0 0 0 0 7.738Z"/><path fill="#B7C5FF" d="M182.784 54.28c0 9.267-7.517 16.783-16.784 16.783-3.288 0-6.354-.944-8.94-2.579 1.249.298 2.553.454 3.894.454 9.267 0 16.784-7.513 16.784-16.784 0-5.983-3.136-11.236-7.851-14.208 7.393 1.759 12.897 8.403 12.897 16.334Z"/><mask id="e" width="40" height="40" x="119" y="99" maskUnits="userSpaceOnUse" style="mask-type:alpha"><path fill="#02FFB3" d="M138.912 138.823c10.996 0 19.911-8.915 19.911-19.911 0-10.997-8.915-19.912-19.911-19.912C127.915 99 119 107.915 119 118.912c0 10.996 8.915 19.911 19.912 19.911Z"/></mask><g mask="url(#e)"><path fill="#DADEFC" d="M118.402 98.665h40.601v40.6h-40.601v-40.6Z"/><path fill="#FF7EB8" d="M135.536 131.214a8.694 8.694 0 1 0 0-17.388 8.694 8.694 0 0 0 0 17.388Z"/><path fill="#01ECA5" d="M159.003 139.265v-17.352a29.42 29.42 0 0 0-9.684-1.629c-12.576 0-23.307 7.887-27.529 18.981h37.213Z"/><path fill="#97FFD2" d="M149.064 139.265h-30.662v-11.737a20.181 20.181 0 0 1 11.071-3.286c9.381 0 17.277 6.37 19.591 15.023Z"/></g><rect width="41.823" height="41.823" x="118" y="98" stroke="#7126BC" stroke-width="2" rx="20.912"/><path fill="#FF8300" d="M93.043 25.755a5.289 5.289 0 0 1-3.752-1.551 5.311 5.311 0 0 1 0-7.503 5.31 5.31 0 0 1 7.502 0 5.271 5.271 0 0 1 1.554 3.752 5.27 5.27 0 0 1-1.554 3.751 5.288 5.288 0 0 1-3.75 1.55Zm0-6.974c-.429 0-.857.163-1.183.489a1.674 1.674 0 0 0 0 2.364 1.674 1.674 0 0 0 2.855-1.182 1.667 1.667 0 0 0-1.672-1.671ZM222.263 109.112a5.29 5.29 0 0 1-3.751-1.551 5.27 5.27 0 0 1-1.554-3.751c0-1.417.552-2.75 1.554-3.752a5.311 5.311 0 0 1 7.502 0 5.272 5.272 0 0 1 1.554 3.752 5.27 5.27 0 0 1-1.554 3.751 5.287 5.287 0 0 1-3.751 1.551Zm0-6.974c-.428 0-.856.163-1.182.489-.316.316-.49.736-.49 1.182a1.673 1.673 0 1 0 2.854-1.182 1.665 1.665 0 0 0-1.182-.489Z"/><path fill="#FF7EB8" d="M104.639 5.86h-1.181V4.68a1.816 1.816 0 1 0-3.632 0v1.18h-1.181a1.817 1.817 0 0 0 0 3.633h1.18v1.18a1.816 1.816 0 0 0 3.633 0v-1.18h1.181a1.817 1.817 0 0 0 0-3.633ZM101.489 130.088h-1.181v-1.181a1.816 1.816 0 0 0-3.633 0v1.181h-1.18a1.816 1.816 0 1 0 0 3.633h1.18v1.18a1.817 1.817 0 0 0 3.633 0v-1.18h1.181a1.817 1.817 0 0 0 0-3.633Z"/><path fill="#01ECA5" d="M116.328 138.761h-1.181v-1.181a1.816 1.816 0 1 0-3.633 0v1.181h-1.181a1.816 1.816 0 1 0 0 3.633h1.181v1.18a1.818 1.818 0 0 0 3.633 0v-1.18h1.181a1.817 1.817 0 0 0 0-3.633Z"/></g><path fill="#FFA2CC" d="M114.082 106H86.918A3.918 3.918 0 0 1 83 102.082V74.918A3.918 3.918 0 0 1 86.918 71h27.164A3.918 3.918 0 0 1 118 74.918v27.164a3.918 3.918 0 0 1-3.918 3.918Z"/><path fill="#6583FE" d="M83 91.57v10.512A3.918 3.918 0 0 0 86.918 106h27.164a3.918 3.918 0 0 0 3.918-3.918V91.569H83Z"/><path stroke="#7126BC" stroke-width="2" d="M114.082 105H86.918A2.918 2.918 0 0 1 84 102.082V74.918A2.918 2.918 0 0 1 86.918 72h27.164A2.918 2.918 0 0 1 117 74.918v27.164a2.917 2.917 0 0 1-2.918 2.918Z"/><path fill="#fff" d="M110.024 80.824a2.567 2.567 0 1 0 0-5.135 2.567 2.567 0 0 0 0 5.135ZM100.5 97.164a8.664 8.664 0 0 0 0-17.328 8.664 8.664 0 1 0 0 17.328Z"/><path fill="#7126BC" d="M100.5 92.092a3.592 3.592 0 1 0 0-7.183 3.592 3.592 0 0 0 0 7.183Z"/></g><defs><linearGradient id="c" x1="200.261" x2="143.048" y1="171.974" y2="41.744" gradientUnits="userSpaceOnUse"><stop offset=".011" stop-color="#DCFDEE"/><stop offset=".381" stop-color="#E8F1EE"/><stop offset="1" stop-color="#FFDBED"/></linearGradient><linearGradient id="d" x1="52.129" x2="254.148" y1="74.658" y2="80.237" gradientUnits="userSpaceOnUse"><stop offset=".049" stop-color="#FBB"/><stop offset=".999" stop-color="#FFBA7A"/></linearGradient><clipPath id="a"><path fill="#fff" d="M0 0h312v160H0z"/></clipPath><clipPath id="b"><path fill="#fff" d="M63-13h186v186H63z"/></clipPath></defs></svg>