<svg xmlns="http://www.w3.org/2000/svg" width="312" height="160" fill="none"><path fill="url(#a)" d="M260.954 131.492c-29.131 18.226-56.938 7.257-88.454 12.508-31.744 5.29-44.839 19.02-80.994 10.89-32.028-7.202-51.462-36.077-33.855-60.252 5.017-6.889 13.565-12.086 17.058-19.793 5.634-12.435-2.942-21.98-1.27-34.2 6.953-50.773 102.233-31.106 137.292-15.31 54.983 24.773 92.179 79.907 50.223 106.157Z"/><path fill="url(#b)" d="M260.954 131.492c-29.131 18.226-56.938 7.257-88.454 12.508-31.744 5.29-44.839 19.02-80.994 10.89-32.028-7.202-51.462-36.077-33.855-60.252 5.017-6.889 13.565-12.086 17.058-19.793 5.634-12.435-2.942-21.98-1.27-34.2 6.953-50.773 102.233-31.106 137.292-15.31 54.983 24.773 92.179 79.907 50.223 106.157Z"/><path fill="#D2DEFF" stroke="#7126BC" stroke-width="3" d="M206.776 29.86v89.391a5.808 5.808 0 0 1-5.805 5.805H111.58a5.807 5.807 0 0 1-5.804-5.805v-89.39a5.807 5.807 0 0 1 5.804-5.805h89.391c3.204 0 5.805 2.6 5.805 5.804Z"/><path fill="#FF8300" d="M236.302 46.605a5.288 5.288 0 0 1-3.751-1.551 5.311 5.311 0 0 1 0-7.503 5.31 5.31 0 0 1 7.502 0 5.27 5.27 0 0 1 1.554 3.752c0 1.416-.552 2.749-1.554 3.75a5.29 5.29 0 0 1-3.751 1.552Zm0-6.974c-.428 0-.856.163-1.182.489a1.676 1.676 0 0 0 0 2.364 1.674 1.674 0 0 0 2.855-1.182c0-.446-.174-.866-.491-1.182a1.665 1.665 0 0 0-1.182-.49Z"/><path fill="#01ECA5" d="M242.263 139.112a5.29 5.29 0 0 1-3.751-1.551 5.27 5.27 0 0 1-1.554-3.751 5.27 5.27 0 0 1 1.554-3.751 5.31 5.31 0 0 1 7.502 0 5.27 5.27 0 0 1 1.554 3.751 5.27 5.27 0 0 1-1.554 3.751 5.287 5.287 0 0 1-3.751 1.551Zm0-6.974c-.428 0-.856.163-1.182.489-.316.316-.49.736-.49 1.182a1.673 1.673 0 1 0 2.854-1.182 1.665 1.665 0 0 0-1.182-.489Z"/><path fill="#FF7EB8" d="M70.81 62.997h-1.18v-1.18a1.817 1.817 0 0 0-3.633 0v1.18h-1.18a1.817 1.817 0 0 0 0 3.633h1.18v1.18a1.817 1.817 0 0 0 3.633 0v-1.18h1.18a1.817 1.817 0 0 0 0-3.633Z"/><path fill="#FF8300" d="M77.81 82.997h-1.18v-1.18a1.817 1.817 0 0 0-3.633 0v1.18h-1.18a1.817 1.817 0 0 0 0 3.633h1.18v1.18a1.817 1.817 0 0 0 3.633 0v-1.18h1.18a1.817 1.817 0 0 0 0-3.633Z"/><path fill="#01ECA5" d="M244.811 27.997h-1.181v-1.18a1.817 1.817 0 0 0-3.633 0v1.18h-1.181a1.816 1.816 0 0 0 0 3.633h1.181v1.18a1.816 1.816 0 1 0 3.633 0v-1.18h1.181a1.816 1.816 0 0 0 0-3.633Z"/><path fill="#FFA2CC" d="M220.825 138.602h-40.049a5.776 5.776 0 0 1-5.776-5.777V92.776A5.776 5.776 0 0 1 180.776 87h40.049a5.776 5.776 0 0 1 5.777 5.776v40.049a5.776 5.776 0 0 1-5.777 5.777Z"/><path fill="#6583FE" d="M175 117.326v15.499a5.776 5.776 0 0 0 5.776 5.776h40.049a5.776 5.776 0 0 0 5.777-5.776v-15.499H175Z"/><path stroke="#7126BC" stroke-width="3" d="M220.825 137.102h-40.049a4.276 4.276 0 0 1-4.276-4.277V92.776a4.276 4.276 0 0 1 4.276-4.276h40.049a4.277 4.277 0 0 1 4.277 4.276v40.049a4.277 4.277 0 0 1-4.277 4.277Z"/><path fill="#fff" d="M214.841 101.484a3.785 3.785 0 1 0 0-7.57 3.785 3.785 0 0 0 0 7.57ZM200.8 125.575c7.055 0 12.774-5.719 12.774-12.774 0-7.055-5.719-12.774-12.774-12.774-7.055 0-12.774 5.719-12.774 12.774 0 7.055 5.719 12.774 12.774 12.774Z"/><path fill="#7126BC" d="M200.801 118.096a5.295 5.295 0 1 0 0-10.59 5.295 5.295 0 0 0 0 10.59Z"/><path fill="#CAFFE8" stroke="#5959DF" stroke-linecap="round" stroke-linejoin="round" stroke-width="3" d="M156 33.5H96a6 6 0 0 0-6 6v60a6.002 6.002 0 0 0 6 6h60a6.003 6.003 0 0 0 4.243-1.757A6.003 6.003 0 0 0 162 99.5v-60a6 6 0 0 0-6-6Z"/><path fill="#5959DF" d="M119 77.5V65.376l10.5 6.06L140 77.5l-10.5 6.062-10.5 6.062V77.5Zm-29-26h72-72Zm54-18-12 18 12-18Zm-24 0-12 18 12-18Z"/><path stroke="#5959DF" stroke-linecap="round" stroke-linejoin="round" stroke-width="3" d="M90 51.5h72m-18-18-12 18m-12-18-12 18m11 26V65.376l10.5 6.06L140 77.5l-10.5 6.062-10.5 6.062V77.5Z"/><defs><linearGradient id="a" x1="219.256" x2="170.124" y1="-6.8" y2="130.621" gradientUnits="userSpaceOnUse"><stop offset=".011" stop-color="#DCFDEE"/><stop offset=".381" stop-color="#E8F1EE"/><stop offset="1" stop-color="#FFDBED"/></linearGradient><linearGradient id="b" x1="37.674" x2="285.215" y1="90.502" y2="82.123" gradientUnits="userSpaceOnUse"><stop offset=".049" stop-color="#FBB"/><stop offset=".999" stop-color="#FFBA7A"/></linearGradient></defs></svg>